<svg xmlns="http://www.w3.org/2000/svg" viewBox="0 0 90 90" xmlns:v="https://vecta.io/nano"><style><![CDATA[.B{fill:#515151}.C{fill:#f2ebeb}.D{fill:#4bdbc5}]]></style><path d="M40.5 34.5h12v10h-12z" class="C"/><path d="M52 35v9H41v-9h11m1-1H40v11h13V34z" class="B"/><path d="M17.5 88.5V58c0-8.5 7-15.5 15.5-15.5h3.9l7 3h5.2l7-3H60c8.5 0 15.5 7 15.5 15.5v30.5h-58z" class="D"/><path d="M60 43c8.3 0 15 6.7 15 15v30H18V58c0-8.3 6.7-15 15-15h3.8l6.8 2.9.2.1h5.4l.2-.1 6.8-2.9H60m0-1h-4l-7 3h-5l-7-3h-4c-8.8 0-16 7.2-16 16v31h59V58c0-8.8-7.2-16-16-16z" class="B"/><path d="M44.5 45.5h4v41h-4z" class="D"/><path d="M48 46v40h-3V46h3m1-1h-5v42h5V45z" class="B"/><path d="m36.7 42.1 3.3-2.5 6.2 5.4-4.1 3.3z" class="D"/><path d="m40 40.3 5.5 4.7-3.3 2.6-4.7-5.5 2.5-1.8m0-1.3-4 3 6 7 5-4-7-6z" class="B"/><path d="m46.8 45 6.2-5.4 3.3 2.5-5.4 6.2z" class="D"/><path d="m53 40.3 2.5 1.9-4.7 5.5-3.2-2.7 5.4-4.7m0-1.3-7 6 5 4 6-7-4-3z" class="B"/><path d="M14.5 86.5V64c0-12 6.2-16.5 7.5-16.5h1c2.1 0 4.5 3.9 4.5 7.5v31.5h-13z" class="C"/><path d="M23 48c1.7 0 4 3.5 4 7v31H15V64c0-11.6 6-16 7-16h1m0-1h-1c-1.8 0-8 5-8 17v23h14V55c0-3.8-2.5-8-5-8z" class="B"/><path d="M14.5 68.5V64c0-12 6.2-16.5 7.5-16.5h1c2.1 0 4.5 3.9 4.5 7.5v13.5h-13z" class="D"/><path d="M23 48c1.7 0 4 3.5 4 7v13H15v-4c0-11.6 6-16 7-16h1m0-1h-1c-1.8 0-8 5-8 17v5h14V55c0-3.8-2.5-8-5-8z" class="B"/><path d="M18.5 86.5c.3-7.2 6.2-13 13.5-13h14.5v13h-28z" class="C"/><path d="M46 74v12H19c.5-6.7 6.1-12 13-12h14m1-1H32c-7.7 0-14 6.3-14 14h29V73z" class="B"/><path d="M25 86H15V74l10 9zm40.5.5V55c0-3.6 2.4-7.5 4.5-7.5h1c1.3 0 7.5 4.5 7.5 16.5v22.5h-13z" class="C"/><path d="M71 48c1 0 7 4.4 7 16v22H66V55c0-3.5 2.3-7 4-7h1m0-1h-1c-2.5 0-5 4.2-5 8v32h14V64c0-12-6.2-17-8-17z" class="B"/><path d="M65.5 68.5V55c0-3.6 2.4-7.5 4.5-7.5h1c1.3 0 7.5 4.5 7.5 16.5v4.5h-13z" class="D"/><path d="M71 48c1 0 7 4.4 7 16v4H66V55c0-3.5 2.3-7 4-7h1m0-1h-1c-2.5 0-5 4.2-5 8v14h14v-5c0-12-6.2-17-8-17z" class="B"/><path d="M46.5 86.5v-13H61c7.3 0 13.2 5.8 13.5 13h-28z" class="C"/><path d="M61 74c6.8 0 12.4 5.3 13 12H47V74h14m0-1H46v14h29c0-7.7-6.3-14-14-14z" class="B"/><path d="M68 86h10V74l-10 9z" class="C"/><path fill="#c9c9a9" d="M.5 86.4h89v3.1H.5z"/><path d="M89 86.9V89H1v-2.1h88m1-1H0V90h90v-4.1z" class="B"/><path d="M26 85.5c-.8 0-1.5-.7-1.5-1.5V58c0-.8.7-1.5 1.5-1.5h41c.8 0 1.5.7 1.5 1.5v26c0 .8-.7 1.5-1.5 1.5H26z" fill="#f4f4f4"/><path d="M67 57c.6 0 1 .4 1 1v26c0 .6-.4 1-1 1H26c-.6 0-1-.4-1-1V58c0-.6.4-1 1-1h41m0-1H26c-1.1 0-2 .9-2 2v26c0 1.1.9 2 2 2h41c1.1 0 2-.9 2-2V58c0-1.1-.9-2-2-2z" class="B"/><circle cx="46.5" cy="71.5" fill="#fff" r="3.5"/><path d="M36 26.5c-1.3 0-2.5-3.1-2.5-5.5 0-2.1.9-2.5 2.5-2.5 1.3 0 2.5 2.1 2.5 4.5 0 2.1-1 3.5-2.5 3.5z" class="C"/><path d="M36 19c1 0 2 1.9 2 4 0 1.5-.5 3-2 3-.8 0-2-2.6-2-5 0-1.7.5-2 2-2m0-1c-1.8 0-3 .5-3 3s1.2 6 3 6 3-1.5 3-4-1.2-5-3-5z" class="B"/><path d="M57 26.5c-1.5 0-2.5-1.4-2.5-3.5 0-2.4 1.2-4.5 2.5-4.5 1.6 0 2.5.4 2.5 2.5 0 2.4-1.2 5.5-2.5 5.5z" class="C"/><path d="M57 19c1.5 0 2 .3 2 2 0 2.4-1.2 5-2 5-1.5 0-2-1.5-2-3 0-2.1 1-4 2-4m0-1c-1.8 0-3 2.5-3 5s1.2 4 3 4 3-3.5 3-6-1.2-3-3-3z" class="B"/><path d="M45 38c-5.6 0-10-9.7-10-18v-.7c0-4.4.2-7.5 2.1-9.4 1.6-1.6 4.5-2.3 9.4-2.3 5.1 0 7.9 1 9.2 3.1C57.1 12.9 57 16 57 20v.6c0 8-3.6 17.4-9 17.4h-3z" class="C"/><path d="M46.6 8.2c6.2 0 8.1 1.5 9 2.9 1.2 1.9 1.4 5 1.4 8.9v.6c0 7.8-3.9 16.4-9 16.4h-3c-5.3 0-9-9-9-17v-.7c0-4.2 0-7.3 1.7-9 1.4-1.4 4.3-2.1 8.9-2.1m0-1C34.7 7.2 35 11.5 35 20s4 18 10 18h3c6 0 9.7-9.4 9.7-17.4 0-8.5.3-13.4-11.1-13.4z" class="B"/><path d="M58.9 12.2c0-2.8.7-7.5-5.9-10.2C49.8.7 42.3.6 38 2c-7.6 2.4-4.5 13.8-4 15 1.4 3.3 2 6 2 6v-9c0-.2 2.8-3 7-3 1.1 0 .4.2 7 1 1.7 0 5.3-1.5 7 3 .4 1.4 0 9 0 9s.1-2.8 1-5c.4-.9.9-4.8.9-6.8z" fill="#4c4c4c"/><path fill="#fff" d="m10.4 85.5-1.8-14h10.8l-1.8 14z"/><path d="m18.9 72-1.7 13H11L9.1 72h9.8m1.1-1H8l2 15h8l2-15z" class="B"/><path fill="#fff" d="M7.5 69.5h13v2h-13z"/><path d="M20 70v1H8v-1h12m1-1H7v3h14v-3z" class="B"/><path fill="#fff" d="m8.7 69.5.7-2h9.2l.7 2z"/><path d="m18.3 68 .3 1H9.4l.3-1h8.6m.7-1H9l-1 3h12l-1-3z" class="B"/><path d="m9.4 79.5-.8-5h10.8l-.8 5z" class="D"/><path d="m18.8 75-.7 4H9.8l-.7-4h9.7m1.2-1H8l1 6h10l1-6z" class="B"/></svg>