<svg viewBox="0 0 1080 1080" xml:space="preserve" xmlns="http://www.w3.org/2000/svg" enable-background="new 0 0 1080 1080"><path d="M990 149.87v602.786c0 31-25.143 56.143-56.143 56.143h-17.429c4.714-18.571 7.214-38.072 7.214-58.143 0-130.071-105.428-235.5-235.5-235.5s-235.571 105.429-235.571 235.5c0 20.071 2.5 39.572 7.214 58.143H146.143c-31 0-56.143-25.143-56.143-56.143V149.87c0-31 25.143-56.071 56.143-56.071h787.714c31-.001 56.143 25.07 56.143 56.071z" fill="none" stroke="#000000" stroke-width="13" stroke-linecap="round" stroke-linejoin="round" class="stroke-2b4b9b"></path><path d="M990 237.946v-88.042c0-31-25.13-56.131-56.131-56.131H146.131c-31 0-56.131 25.13-56.131 56.131v88.042h900z" fill="none" stroke="#000000" stroke-width="13" stroke-linecap="round" stroke-linejoin="round" class="stroke-2b4b9b"></path><path d="M227.286 165.824c0 18.286-14.857 33.143-33.143 33.143S161 184.11 161 165.824s14.857-33.071 33.143-33.071c18.286-.001 33.143 14.785 33.143 33.071zM356.508 165.824c0 18.286-14.857 33.143-33.143 33.143s-33.143-14.857-33.143-33.143 14.857-33.071 33.143-33.071c18.286-.001 33.143 14.785 33.143 33.071zM485.731 165.824c0 18.286-14.857 33.143-33.143 33.143s-33.143-14.857-33.143-33.143 14.857-33.071 33.143-33.071c18.286-.001 33.143 14.785 33.143 33.071zM923.643 750.655c0 20.071-2.5 39.572-7.214 58.143-25.929 102-118.286 177.429-228.286 177.429s-202.429-75.429-228.357-177.429c-4.714-18.571-7.214-38.072-7.214-58.143 0-130.071 105.5-235.5 235.571-235.5s235.5 105.429 235.5 235.5z" fill="none" stroke="#000000" stroke-width="13" stroke-linecap="round" stroke-linejoin="round" class="stroke-2b4b9b"></path><path d="m615.964 715.209-78.071 38.215 77.428 37.5c1.857 1 3.072 1.786 4 2.428 1.857 1.357 3.214 3.214 4.071 5.5.643 1.643 1 3.571 1.215 5.857.143 1.786.286 4.214.286 7.214 0 2.714-.143 4.929-.357 6.643-.357 2.786-1.143 4.929-2.429 6.571-1.786 2.286-4.357 3.571-7.143 3.571-.429 0-.857 0-1.214-.071-1.643-.214-3.286-.786-5.143-1.786L497.25 770.567c-2.714-1.357-4.643-3.928-5.857-7.642-.786-2.5-1.143-5.715-1.143-9.929 0-1.786.071-3.428.214-5 .215-2 .643-3.643 1.214-5.072a17.457 17.457 0 0 1 1.857-3.643c1.143-1.715 2.714-2.929 4.5-3.714l110.786-55.857c6.571-3.143 11.286-.857 13.5 2.357 1.786 2.5 2.571 6.143 2.571 12.5 0 3-.143 5.357-.286 7.143-.143 2.143-.5 3.928-1 5.5-.786 2.286-2 4.143-3.643 5.5-.999.857-2.356 1.714-3.999 2.499zM748.893 629.424c.429 2.286.215 4.714-.786 7.214l-85.571 234.643c-.643 2.071-1.572 3.857-2.786 5.286-1.429 1.572-3.143 2.786-5.143 3.571-1.5.572-3.142 1-5.071 1.286a48.8 48.8 0 0 1-6.072.357c-2.857 0-5.286-.214-7.357-.643-2.571-.572-4.643-1.429-6.286-2.643-2.286-1.643-3.786-3.928-4.357-6.572-.5-2.428-.143-5 1.071-7.643l85.429-234.357c.572-1.786 1.5-3.643 2.786-5.143 1.286-1.429 2.857-2.643 4.643-3.428 1.572-.786 3.5-1.286 5.786-1.5 3.643-.357 9.5-.429 13.143.429 2.429.5 4.357 1.286 5.929 2.357 2.427 1.572 4.07 4 4.642 6.786zM885.964 753.567c0 2-.143 3.786-.357 5.357-.286 1.714-.572 3.143-.929 4.357-.643 2-1.5 3.643-2.714 4.929-1.071 1.214-2.286 2.143-3.643 2.786l-111.143 56.071c-2.143 1-3.857 1.429-5.5 1.571h-.572c-3.071 0-5.857-1.571-7.571-4.214-1-1.572-1.714-3.5-2-5.929-.214-1.643-.357-3.714-.357-6.286 0-2.857.072-5.071.143-6.786.143-2.285.429-4.143 1-5.786.714-2.214 1.928-4.071 3.643-5.5 1.143-1 2.5-1.857 4.214-2.572l77.928-38.357-77.5-37.357c-1.571-.714-2.928-1.5-4.071-2.357-1.857-1.286-3.214-3.214-4.071-5.643-.643-1.643-1-3.643-1.143-6.071-.071-1.715-.143-4.071-.143-6.929s.143-5.143.357-6.714c.358-2.5 1-4.5 2.072-6.071 1.928-2.786 5.071-4.286 8.5-3.786 1.786.214 3.428.786 5.286 1.786l111.357 56.072c2.714 1.357 4.643 3.929 5.929 7.643.857 2.572 1.285 5.786 1.285 9.786zM166.821 311.321h746.358M166.821 409.637h746.358M166.821 507.952h299.57M166.821 606.268h252.624M166.821 704.584H372.5" fill="none" stroke="#000000" stroke-width="13" stroke-linecap="round" stroke-linejoin="round" class="stroke-2b4b9b"></path></svg>